<svg width="18" height="18" viewBox="0 0 18 18" fill="none" xmlns="http://www.w3.org/2000/svg">
<g clip-path="url(#clip0)">
<path d="M4.38446 10.0625L4.38445 10.0625C4.31565 10.0176 2.94919 9.15 0.375 9.15C0.112772 9.15 -0.1 9.36277 -0.1 9.625V16.375C-0.1 16.6372 0.112772 16.85 0.375 16.85H2.625C2.84262 16.85 3.03156 16.7026 3.08561 16.4921L3.08568 16.4918L4.58568 10.5773L4.58574 10.5771C4.63511 10.3806 4.55445 10.1737 4.38446 10.0625ZM3.57271 10.7082L2.25545 15.9H0.85V10.1111C2.21623 10.1761 3.13496 10.5092 3.57271 10.7082Z" fill="white" stroke="white" stroke-width="0.2"/>
<path d="M16.9531 14.6888C16.2913 15.0274 14.9837 15.6776 13.6115 16.2569C12.8843 16.5638 12.1405 16.8502 11.4659 17.0597C10.7891 17.2699 10.1902 17.4 9.7499 17.4C9.34189 17.4 8.81103 17.302 8.2163 17.1409C7.62305 16.9802 6.97239 16.7584 6.32692 16.5143C5.03605 16.0263 3.77123 15.4515 3.0373 15.1055L3.0369 15.1054C2.79975 14.9948 2.51622 15.0936 2.40458 15.3329C2.29373 15.569 2.39387 15.8529 2.63176 15.9644C3.57464 16.409 4.90397 17.0044 6.22008 17.4888C7.53197 17.9717 8.84516 18.35 9.7499 18.35C10.3457 18.35 11.1364 18.1631 11.9835 17.8868C12.833 17.6097 13.7485 17.2394 14.5971 16.8659C16.253 16.1372 17.6603 15.3939 17.8369 15.3007L17.8478 15.295L17.8485 15.2946C18.0533 15.1846 18.1484 14.9443 18.0753 14.7249C18.0523 14.6561 17.5664 13.275 15.7499 13.275C14.9309 13.275 13.9905 13.5713 13.1 13.8519L13.0761 13.8594L13.076 13.8594C12.2216 14.1296 11.3608 14.4 10.6874 14.4C9.99329 14.4 9.14992 14.2229 8.47261 14.0424C8.13503 13.9525 7.84074 13.8623 7.62969 13.7942C7.52419 13.7601 7.43956 13.7316 7.38081 13.7114C7.35143 13.7012 7.32854 13.6932 7.31276 13.6876C7.29936 13.6829 7.29192 13.6802 7.28973 13.6794C7.28921 13.6792 7.28899 13.6791 7.28905 13.6792L7.28906 13.6791L7.28683 13.6783C7.04069 13.5903 6.76793 13.716 6.6784 13.9626L6.67836 13.9627C6.58918 14.2094 6.71619 14.4821 6.96254 14.5715L6.96261 14.5715C7.00761 14.5878 7.54638 14.782 8.26869 14.9723C8.98939 15.1621 9.90031 15.35 10.6874 15.35C11.5065 15.35 12.4468 15.0537 13.3374 14.7731L13.3612 14.7656L13.3613 14.7656C14.2157 14.4954 15.0765 14.225 15.7499 14.225C16.385 14.225 16.7514 14.4708 16.9531 14.6888ZM6.7724 13.9967C6.8429 13.8025 7.05815 13.7027 7.25315 13.7725L6.7724 13.9967Z" fill="white" stroke="white" stroke-width="0.2"/>
<path d="M11.1182 13.2006L11.1182 13.2006L11.1191 13.2008C11.5785 13.3072 11.8996 13.7146 11.8996 14.1924V14.5674C11.8996 14.8296 12.1124 15.0424 12.3746 15.0424C12.6369 15.0424 12.8496 14.8296 12.8496 14.5674V14.1924C12.8496 13.2728 12.2272 12.4837 11.3372 12.2756C11.3371 12.2756 11.337 12.2756 11.3369 12.2755L4.10011 10.5282L4.10011 10.5282L4.09853 10.5278C3.85078 10.4723 3.58941 10.6211 3.52718 10.8787C3.46545 11.1341 3.62224 11.3906 3.87765 11.4524L3.87766 11.4524L11.1182 13.2006Z" fill="white" stroke="white" stroke-width="0.2"/>
<path d="M13.6156 9.93746L13.6156 9.93747C13.6844 9.98241 15.0509 10.85 17.6251 10.85C17.8873 10.85 18.1001 10.6372 18.1001 10.375V3.625C18.1001 3.36277 17.8873 3.15 17.6251 3.15H15.3751C15.1575 3.15 14.9685 3.29738 14.9145 3.50788L14.9144 3.50817L13.4144 9.42267L13.4143 9.42289C13.365 9.61943 13.4456 9.82635 13.6156 9.93746ZM15.7446 4.1H17.1501V9.88894C15.7843 9.82396 14.8656 9.49138 14.4281 9.29193L15.7446 4.1Z" fill="white" stroke="white" stroke-width="0.2"/>
<path d="M0.151947 4.70504L0.151945 4.70504L0.151279 4.7054C-0.0535627 4.81541 -0.148674 5.05568 -0.0755267 5.27512C-0.0525879 5.34394 0.433335 6.725 2.24984 6.725C3.0689 6.725 4.00929 6.42871 4.89981 6.14814L4.92364 6.14063L4.92375 6.1406C5.77818 5.87038 6.63898 5.6 7.31234 5.6C8.00646 5.6 8.84982 5.77714 9.52713 5.95757C9.86471 6.0475 10.159 6.13768 10.3701 6.20583C10.4756 6.23989 10.5602 6.26843 10.6189 6.28865C10.6483 6.29875 10.6712 6.30678 10.687 6.31236C10.6932 6.31457 10.6982 6.31634 10.7019 6.31767C10.7081 6.31988 10.7109 6.32092 10.7107 6.32083L10.7107 6.32086L10.7127 6.32158C10.9598 6.41059 11.2319 6.28467 11.3214 6.03725C11.4106 5.79059 11.2836 5.51791 11.0372 5.4285L11.0371 5.42847C10.9921 5.41218 10.4534 5.21797 9.73106 5.02773C9.01036 4.83792 8.09944 4.65 7.31234 4.65C6.49329 4.65 5.5529 4.94629 4.66238 5.22686L4.63854 5.23437L4.63844 5.2344C3.78401 5.50462 2.9232 5.775 2.24984 5.775C1.61472 5.775 1.24836 5.52918 1.04662 5.31119C1.70844 4.97263 3.01603 4.32237 4.38826 3.7431C5.1154 3.43614 5.85921 3.14975 6.53384 2.94026C7.21064 2.73008 7.80951 2.6 8.24984 2.6C8.65785 2.6 9.18872 2.69795 9.78345 2.85907C10.3767 3.01979 11.0274 3.24163 11.6728 3.48566C12.9637 3.9737 14.2285 4.54845 14.9624 4.89445L14.9631 4.89477C15.1998 5.00414 15.4833 4.90678 15.5951 4.66724C15.706 4.43109 15.6059 4.14707 15.368 4.03555C14.4251 3.59096 13.0958 2.99559 11.7797 2.51116C10.4678 2.02828 9.15458 1.65 8.24984 1.65C7.65407 1.65 6.86332 1.83684 6.01624 2.11318C5.16672 2.39032 4.25126 2.76064 3.40263 3.1341C1.74664 3.86284 0.339293 4.6061 0.162865 4.69928C0.158449 4.70161 0.154805 4.70354 0.151947 4.70504ZM15.5046 4.62475C15.4168 4.813 15.1933 4.891 15.0051 4.804C13.5351 4.111 9.93509 2.5 8.24984 2.5C6.46796 2.5 2.32335 4.54493 0.97985 5.23302L15.5046 4.62475ZM10.7466 6.2275C10.7271 6.22 8.72759 5.5 7.31234 5.5C6.62009 5.5 5.74259 5.77675 4.89359 6.04525L10.7466 6.2275Z" fill="white" stroke="white" stroke-width="0.2"/>
<path d="M13.8988 9.47182L13.8998 9.47205C13.9355 9.48031 13.9731 9.48511 14.0108 9.48511C14.2248 9.48511 14.4192 9.33892 14.4724 9.12162L14.4725 9.12135C14.5342 8.86589 14.3774 8.60938 14.122 8.54766L14.122 8.54766L6.88147 6.79941L6.88147 6.7994L6.88055 6.79919C6.42117 6.69287 6.1 6.28538 6.1 5.80762V5.43262C6.1 5.17039 5.88723 4.95762 5.625 4.95762C5.36277 4.95762 5.15 5.17039 5.15 5.43262V5.80762C5.15 6.72724 5.77238 7.51634 6.66162 7.7244C6.66174 7.72443 6.66186 7.72446 6.66199 7.72449L13.8988 9.47182Z" fill="white" stroke="white" stroke-width="0.2"/>
</g>
<defs>
<clipPath id="clip0">
<rect width="18" height="18" fill="white"/>
</clipPath>
</defs>
</svg>
