<svg width="15" height="17" viewBox="0 0 15 17" fill="none" xmlns="http://www.w3.org/2000/svg">
<path d="M11.612 10.3397C10.7373 10.3397 9.9543 10.7388 9.43475 11.3642L6.0551 9.44536C6.1602 9.1496 6.21796 8.8316 6.21796 8.5002C6.21796 8.16886 6.1602 7.85086 6.0551 7.55511L9.43448 5.63581C9.95397 6.26145 10.7371 6.66058 11.6118 6.66058C13.1721 6.66058 14.4414 5.39076 14.4414 3.82986C14.4416 2.26943 13.1722 1 11.612 1C10.0515 1 8.78204 2.26943 8.78204 3.8298C8.78204 4.1612 8.83974 4.47927 8.9449 4.77509L5.56532 6.69445C5.04584 6.06914 4.26288 5.67027 3.38843 5.67027C1.8278 5.67027 0.558105 6.9397 0.558105 8.50013C0.558105 10.0605 1.8278 11.3299 3.38843 11.3299C4.26288 11.3299 5.04577 10.9311 5.56526 10.3058L8.9449 12.2247C8.83974 12.5205 8.78198 12.8387 8.78198 13.1701C8.78198 14.7305 10.0515 15.9999 11.6119 15.9999C13.1721 15.9999 14.4415 14.7304 14.4415 13.1701C14.4416 11.6095 13.1722 10.3397 11.612 10.3397ZM11.612 1.99025C12.6262 1.99025 13.4513 2.81545 13.4513 3.8298C13.4513 4.84467 12.6262 5.67027 11.612 5.67027C10.5976 5.67027 9.77229 4.84467 9.77229 3.8298C9.77229 2.81545 10.5976 1.99025 11.612 1.99025ZM3.3885 10.3397C2.37389 10.3397 1.54842 9.51447 1.54842 8.5002C1.54842 7.48579 2.37389 6.66058 3.3885 6.66058C4.40271 6.66058 5.22778 7.48579 5.22778 8.5002C5.22778 9.51447 4.40264 10.3397 3.3885 10.3397ZM11.612 15.0098C10.5976 15.0098 9.77229 14.1845 9.77229 13.1702C9.77229 12.1555 10.5976 11.33 11.612 11.33C12.6262 11.33 13.4513 12.1555 13.4513 13.1702C13.4513 14.1845 12.6262 15.0098 11.612 15.0098Z" fill="#BC873A" stroke="#BC873A"/>
</svg>
