<svg width="20" height="20" viewBox="0 0 20 20" fill="none" xmlns="http://www.w3.org/2000/svg">
<path d="M2.81983 13.4801H6.93736V16.4061C6.93736 17.8099 7.34136 18.829 8.1412 19.4336C9.39808 20.3892 11.1079 19.8522 11.1814 19.8269C11.4711 19.7338 11.6711 19.4505 11.6711 19.1334V15.6027C11.6711 12.9896 14.6378 12.0805 14.7643 12.0466C14.7725 12.0424 14.7807 12.0424 14.7847 12.0382L15.1234 11.9283C15.507 12.3046 16.0212 12.5329 16.5844 12.5329H17.8698C19.0451 12.5371 20 11.5477 20 10.3299V2.73576C20 1.51799 19.0451 0.528547 17.8698 0.528547H16.5844C16.0416 0.528547 15.5438 0.739965 15.1683 1.09092C14.6297 0.427065 13.8217 0 12.9198 0H4.57866C2.64436 0 1.35891 1.09938 1.13446 2.93872L0.0979385 9.68299L0.0408077 10.0466C0.0163231 10.2158 0 10.3891 0 10.5625C0.00407982 12.1693 1.26913 13.4801 2.81983 13.4801ZM15.8539 2.73153C15.8539 2.31292 16.1804 1.97465 16.5844 1.97465H17.8698C18.2738 1.97465 18.6003 2.31292 18.6003 2.73153V10.3299C18.6003 10.7485 18.2738 11.0868 17.8698 11.0868H16.5844C16.1804 11.0868 15.8539 10.7485 15.8539 10.3299V2.73153ZM1.4242 10.2707L2.51785 3.15014C2.51785 3.14169 2.52193 3.13323 2.52193 3.12477C2.5709 2.71039 2.71781 1.44611 4.57866 1.44611H12.9198C13.7645 1.44611 14.4542 2.1607 14.4542 3.03597V10.3299C14.4542 10.4272 14.4624 10.5244 14.4746 10.6217L14.3726 10.6555C14.0747 10.7443 10.2714 11.9536 10.2714 15.6069V18.5372C9.86737 18.5795 9.33687 18.5499 8.96552 18.2624C8.54928 17.941 8.33707 17.3194 8.33707 16.4061V12.7528C8.33707 12.3511 8.02285 12.0255 7.63518 12.0255H2.81983C2.03632 12.0255 1.40379 11.3659 1.40379 10.5583C1.40379 10.4652 1.41195 10.368 1.4242 10.2707Z" fill="#969696"/>
</svg>
