<svg width="20" height="19" viewBox="0 0 20 19" fill="none" xmlns="http://www.w3.org/2000/svg">
<path d="M17.1802 6.19393H13.0626V3.4142C13.0626 2.08057 12.6586 1.11248 11.8588 0.538056C10.6019 -0.369777 8.89206 0.140377 8.81861 0.164479C8.52887 0.252852 8.32891 0.521988 8.32891 0.82326V4.17742C8.32891 6.6599 5.36217 7.52355 5.23567 7.55568C5.2275 7.5597 5.21934 7.5597 5.21526 7.56372L4.87656 7.66816C4.49296 7.31065 3.97878 7.09373 3.41563 7.09373H2.13018C0.954907 7.08972 0 8.02969 0 9.18657V16.401C0 17.5579 0.954907 18.4979 2.13018 18.4979H3.41563C3.95838 18.4979 4.45623 18.297 4.83167 17.9636C5.37033 18.5943 6.17833 19 7.08019 19H15.4213C17.3556 19 18.6411 17.9556 18.8655 16.2082L19.9021 9.80116L19.9592 9.45571C19.9837 9.29503 20 9.13033 20 8.96564C19.9959 7.43919 18.7309 6.19393 17.1802 6.19393ZM4.14609 16.405C4.14609 16.8027 3.81963 17.1241 3.41563 17.1241H2.13018C1.72618 17.1241 1.39971 16.8027 1.39971 16.405V9.18657C1.39971 8.78889 1.72618 8.46753 2.13018 8.46753H3.41563C3.81963 8.46753 4.14609 8.78889 4.14609 9.18657V16.405ZM18.5758 9.24281L17.4821 16.0074C17.4821 16.0154 17.4781 16.0234 17.4781 16.0315C17.4291 16.4251 17.2822 17.6262 15.4213 17.6262H7.08019C6.23546 17.6262 5.54581 16.9473 5.54581 16.1158V9.18657C5.54581 9.09418 5.53764 9.00179 5.5254 8.9094L5.62742 8.87726C5.92532 8.79291 9.72863 7.64406 9.72863 4.1734V1.38965C10.1326 1.34948 10.6631 1.3776 11.0345 1.65075C11.4507 1.95604 11.6629 2.54654 11.6629 3.4142V6.88485C11.6629 7.26646 11.9771 7.57577 12.3648 7.57577H17.1802C17.9637 7.57577 18.5962 8.20241 18.5962 8.96965C18.5962 9.05803 18.588 9.15042 18.5758 9.24281Z" fill="#969696"/>
</svg>
