<svg width="22" height="22" viewBox="0 0 22 22" fill="none" xmlns="http://www.w3.org/2000/svg">
<g clip-path="url(#clip0)">
<path d="M19.0272 0.637258C18.9732 0.395852 18.7735 0.214329 18.528 0.183626C16.1097 -0.11864 13.8757 -0.0474678 11.8881 0.395149C9.357 0.958703 7.1872 2.13073 5.43864 3.87901C2.71181 6.60858 2.71181 11.0499 5.43892 13.7797C5.70196 14.0427 5.98255 14.2818 6.27767 14.4967V19.4141C6.27767 19.7377 6.54001 20 6.8636 20C7.1872 20 7.44954 19.7377 7.44954 19.4141V15.1859C8.35919 15.6068 9.35751 15.8289 10.3904 15.8289C12.2617 15.8289 14.0194 15.1011 15.3395 13.7797C17.4033 11.716 16.9759 8.87252 16.8353 7.27678C16.6205 4.84057 16.435 2.73659 18.7687 1.26023C18.9776 1.12796 19.0812 0.878703 19.0272 0.637258ZM6.26743 4.70749C8.33114 2.64417 11.0129 1.47937 14.2706 1.22429C12.8734 1.90503 11.5231 2.8978 10.3442 4.14221C8.03274 6.58213 6.63735 9.69447 6.33876 13.0206C4.00353 10.7622 3.96755 7.00967 6.26743 4.70749ZM15.6678 7.37971C15.8518 9.46595 16.0255 11.4365 14.5105 12.9513C13.4116 14.0513 11.9484 14.657 10.3903 14.657C9.34356 14.657 8.33946 14.3833 7.45946 13.8704C7.57966 10.5279 8.89473 7.37619 11.1949 4.94811C12.2518 3.83253 13.4898 2.91124 14.775 2.28386C15.4017 1.97796 16.0339 1.74444 16.6544 1.58749C16.1939 2.17729 15.8818 2.8519 15.7116 3.62171C15.4435 4.83436 15.5575 6.12834 15.6678 7.37971Z" fill="white"/>
</g>
<defs>
<clipPath id="clip0">
<rect width="22" height="22" fill="white"/>
</clipPath>
</defs>
</svg>
