<svg width="236" height="65" viewBox="0 0 236 65" fill="none" xmlns="http://www.w3.org/2000/svg">
<circle cx="22.2889" cy="22.2889" r="22.2889" fill="#FF8660" fill-opacity="0.11"/>
<circle cx="22.5" cy="22.5" r="12.5" fill="#F8521D"/>
<path d="M31.9714 19.5776L22.8578 11.2734C22.4578 10.9089 21.8546 10.9089 21.4547 11.2734L12.3411 19.5777C12.0207 19.8697 11.9148 20.3196 12.0714 20.7238C12.228 21.128 12.6092 21.3892 13.0427 21.3892H14.4983V29.7094C14.4983 30.0393 14.7658 30.3068 15.0957 30.3068H20.091C20.4209 30.3068 20.6884 30.0393 20.6884 29.7094V24.6576H23.6243V29.7095C23.6243 30.0393 23.8917 30.3068 24.2216 30.3068H29.2167C29.5466 30.3068 29.8141 30.0394 29.8141 29.7095V21.3892H31.27C31.7034 21.3892 32.0847 21.128 32.2413 20.7238C32.3977 20.3195 32.2918 19.8697 31.9714 19.5776Z" fill="#FFF7E2"/>
</svg>
