<svg width="30" height="30" viewBox="0 0 30 30" fill="none" xmlns="http://www.w3.org/2000/svg">
<rect width="30" height="30" rx="5" fill="#3B5998"/>
<path d="M18.3381 8.12784L16.5741 8.125C14.5925 8.125 13.3118 9.44117 13.3118 11.4783V13.0244H11.5383C11.385 13.0244 11.2609 13.1489 11.2609 13.3024V15.5425C11.2609 15.696 11.3851 15.8203 11.5383 15.8203H13.3118V21.4729C13.3118 21.6264 13.4359 21.7507 13.5891 21.7507H15.9031C16.0564 21.7507 16.1805 21.6262 16.1805 21.4729V15.8203H18.2541C18.4074 15.8203 18.5315 15.696 18.5315 15.5425L18.5324 13.3024C18.5324 13.2287 18.5031 13.1581 18.4511 13.1059C18.3992 13.0537 18.3284 13.0244 18.2549 13.0244H16.1805V11.7138C16.1805 11.0838 16.3303 10.764 17.1495 10.764L18.3378 10.7636C18.4909 10.7636 18.615 10.6391 18.615 10.4857V8.40567C18.615 8.25244 18.491 8.12812 18.3381 8.12784Z" fill="white"/>
</svg>
