<svg width="16" height="16" viewBox="0 0 16 16" fill="none" xmlns="http://www.w3.org/2000/svg">
<path fill-rule="evenodd" clip-rule="evenodd" d="M8.28899 0.640625C4.06721 0.640625 0.640839 4.067 0.640839 8.28877C0.640839 12.5106 4.06721 15.9369 8.28899 15.9369C12.5108 15.9369 15.9371 12.5106 15.9371 8.28877C15.9371 4.067 12.5108 0.640625 8.28899 0.640625ZM11.05 5.48955C11.8684 5.48955 12.5261 6.14729 12.5261 6.96564C12.5261 7.78399 11.8684 8.44173 11.05 8.44173C10.2317 8.44173 9.57391 7.78399 9.57391 6.96564C9.56627 6.14729 10.2317 5.48955 11.05 5.48955ZM6.46108 4.2811C7.45534 4.2811 8.26604 5.0918 8.26604 6.08606C8.26604 7.08032 7.45534 7.89103 6.46108 7.89103C5.46682 7.89103 4.65612 7.08032 4.65612 6.08606C4.65612 5.08416 5.45917 4.2811 6.46108 4.2811ZM6.46102 11.2639V14.132C4.62546 13.5584 3.17231 12.1435 2.52987 10.3385C3.33292 9.48193 5.33674 9.04598 6.46102 9.04598C6.86637 9.04598 7.37879 9.10717 7.91417 9.21424C6.65987 9.87963 6.46102 10.7592 6.46102 11.2639ZM8.28894 14.4073C8.08244 14.4073 7.88359 14.3996 7.68474 14.3767V11.2639C7.68474 10.1778 9.93329 9.63482 11.0499 9.63482C11.8683 9.63482 13.2832 9.9331 13.9868 10.5144C13.092 12.7859 10.8817 14.4073 8.28894 14.4073Z" fill="#007BFF"/>
</svg>
