<svg width="14" height="16" viewBox="0 0 14 16" fill="none" xmlns="http://www.w3.org/2000/svg">
<path fill-rule="evenodd" clip-rule="evenodd" d="M12.25 2.25H9.115C8.8 1.38 7.975 0.75 7 0.75C6.025 0.75 5.2 1.38 4.885 2.25H1.75C0.925 2.25 0.25 2.925 0.25 3.75V14.25C0.25 15.075 0.925 15.75 1.75 15.75H12.25C13.075 15.75 13.75 15.075 13.75 14.25V3.75C13.75 2.925 13.075 2.25 12.25 2.25ZM7 2.25C7.4125 2.25 7.75 2.5875 7.75 3C7.75 3.4125 7.4125 3.75 7 3.75C6.5875 3.75 6.25 3.4125 6.25 3C6.25 2.5875 6.5875 2.25 7 2.25ZM5.5 12.75L2.5 9.74998L3.5575 8.69248L5.5 10.6275L10.4425 5.68498L11.5 6.74998L5.5 12.75Z" fill="#00B517"/>
</svg>
