<svg width="30" height="30" viewBox="0 0 30 30" fill="none" xmlns="http://www.w3.org/2000/svg">
<rect width="30" height="30" rx="5" fill="#55ACEE"/>
<path d="M21.875 10.7068C21.3693 10.9326 20.8252 11.0853 20.2547 11.1535C20.8372 10.8021 21.2843 10.2462 21.4953 9.58257C20.9502 9.90811 20.3462 10.1443 19.7039 10.2716C19.1893 9.71982 18.4561 9.375 17.6443 9.375C16.0866 9.375 14.8233 10.6469 14.8233 12.2151C14.8233 12.4377 14.8483 12.6544 14.8967 12.8624C12.5523 12.744 10.4735 11.6134 9.08205 9.89456C8.83927 10.3139 8.7 10.8021 8.7 11.3225C8.7 12.3076 9.19839 13.1773 9.95491 13.6865C9.49271 13.6719 9.05743 13.5442 8.67728 13.3309C8.67707 13.3429 8.67707 13.355 8.67707 13.3669C8.67707 14.743 9.64986 15.8907 10.9401 16.1515C10.7037 16.2167 10.4539 16.2512 10.1971 16.2512C10.0149 16.2512 9.83836 16.2337 9.66627 16.2006C10.0252 17.3287 11.0668 18.1499 12.3015 18.1729C11.3358 18.9348 10.1196 19.3887 8.79761 19.3887C8.5704 19.3887 8.3453 19.3754 8.12503 19.3489C9.37279 20.155 10.856 20.625 12.449 20.625C17.6378 20.625 20.4754 16.2974 20.4754 12.544C20.4754 12.421 20.4726 12.2983 20.4672 12.1768C21.0188 11.7764 21.497 11.2764 21.875 10.7068Z" fill="white"/>
</svg>
