<svg width="24" height="24" viewBox="0 0 24 24" fill="none" xmlns="http://www.w3.org/2000/svg">
<mask id="path-1-outside-1" maskUnits="userSpaceOnUse" x="1" y="0.468018" width="21" height="21" fill="black">
<rect fill="white" x="1" y="0.468018" width="21" height="21"/>
<path d="M21.0198 12.0794C20.6609 11.8692 20.2424 11.8141 19.8414 11.9243C19.4404 12.0345 19.1088 12.2957 18.9078 12.6597L18.6109 13.1972L18.3394 12.1839L19.1475 10.7842C19.6261 9.95531 19.341 8.8916 18.5121 8.41302C18.206 8.23631 17.8649 8.16448 17.5325 8.18665L18.2874 6.88019C18.5193 6.47869 18.5809 6.01088 18.4609 5.56304C18.3409 5.11519 18.0537 4.74084 17.6521 4.50906C17.3436 4.33092 17.0026 4.25878 16.6714 4.28087L16.7923 4.07141C17.2709 3.24253 16.9859 2.17882 16.1569 1.70024C15.3281 1.22162 14.2644 1.50677 13.7858 2.33561L13.6649 2.54491C13.5185 2.24702 13.2853 1.9879 12.9769 1.8098C12.5754 1.57798 12.1076 1.51638 11.6597 1.63637C11.2118 1.75635 10.8375 2.04359 10.6057 2.44513L10.0681 3.3763C9.96148 3.56101 10.0248 3.79719 10.2095 3.90381C10.3942 4.01043 10.6304 3.94718 10.737 3.76247L11.2746 2.8313C11.4033 2.60844 11.611 2.44899 11.8596 2.38237C12.1082 2.31576 12.3678 2.34997 12.5907 2.47861C12.8135 2.60728 12.973 2.81504 13.0396 3.06362C13.1058 3.31073 13.0724 3.56877 12.9457 3.79078L9.45734 9.83251C9.35072 10.0172 9.41397 10.2534 9.59868 10.36C9.78334 10.4666 10.0195 10.4034 10.1262 10.2187L14.4545 2.72174C14.7202 2.26166 15.3106 2.10344 15.7707 2.36909C16.2308 2.63474 16.389 3.22515 16.1233 3.68524L12.6185 9.75589C11.991 9.96964 11.627 10.6384 11.801 11.2879L11.8611 11.5124C11.696 11.4886 11.5237 11.497 11.3526 11.5428C10.6755 11.7243 10.2722 12.4228 10.4536 13.0999L11.491 16.9713C11.6826 17.6865 12.0314 18.3326 12.5079 18.8717C10.497 19.9887 8.06222 19.9774 6.04961 18.8154C3.22604 17.1852 2.03567 13.7969 3.21917 10.759L4.45125 7.59619C4.65233 7.08007 5.23935 6.81431 5.75979 7.00376C6.26656 7.1882 6.54549 7.7383 6.39481 8.25612L5.59605 11.001C5.53639 11.206 5.6395 11.4238 5.83583 11.5076C6.03219 11.5913 6.26077 11.5151 6.36747 11.3302L9.0003 6.77029C9.10696 6.58558 9.04367 6.34944 8.85897 6.24277C8.67434 6.13615 8.43812 6.19941 8.33146 6.38411L7.14626 8.43681C7.38773 7.54004 6.90031 6.59693 6.02401 6.27799C5.57937 6.11623 5.0972 6.13457 4.66627 6.32963C4.2353 6.52476 3.90335 6.87498 3.73162 7.31583L2.49954 10.4786C1.86433 12.1091 1.83394 13.9163 2.41397 15.5673C2.99399 17.2182 4.14803 18.6093 5.66344 19.4842C6.78094 20.1294 8.04052 20.4671 9.32171 20.4671C9.40706 20.4671 9.49256 20.4655 9.57805 20.4625C10.8196 20.4189 12.0283 20.0615 13.0909 19.4266C13.2776 19.576 13.4768 19.7124 13.6878 19.8343C14.4143 20.2538 15.2206 20.4681 16.0377 20.468C16.4472 20.468 16.8596 20.4141 17.2658 20.3053C18.7713 19.9019 19.9783 18.783 20.4945 17.3123L21.682 13.9284C21.9285 13.226 21.65 12.4484 21.0198 12.0794ZM18.1259 9.08191C18.586 9.34755 18.7442 9.93793 18.4786 10.3981L18.0566 11.1289L17.6773 9.71334C17.6054 9.44506 17.4515 9.2129 17.237 9.04429C17.5136 8.9162 17.8461 8.92037 18.1259 9.08191ZM17.2659 5.17791C17.4887 5.30658 17.6481 5.51434 17.7148 5.76292C17.7814 6.01154 17.7472 6.27116 17.6186 6.4939L16.2976 8.77996C16.2383 8.78722 16.179 8.79853 16.1202 8.81429C15.9504 8.85978 15.7952 8.93837 15.6613 9.04414C15.5612 8.7559 15.3636 8.51574 15.0967 8.36166C14.8861 8.23998 14.6504 8.18271 14.4131 8.19213L15.9498 5.53044C16.2155 5.07047 16.8058 4.9123 17.2659 5.17791ZM20.9532 13.6726L19.7657 17.0565C19.3341 18.2863 18.3248 19.222 17.0658 19.5593C16.0485 19.8318 14.986 19.692 14.074 19.1654C13.1619 18.6388 12.5095 17.7886 12.2369 16.7713L11.1996 12.9C11.1284 12.6342 11.2867 12.36 11.5525 12.2888C11.8182 12.2177 12.0924 12.3758 12.1637 12.6415L12.8303 15.1294C12.8766 15.302 13.0326 15.4157 13.2031 15.4157C13.2362 15.4157 13.2698 15.4115 13.3033 15.4025C13.5093 15.3473 13.6316 15.1355 13.5764 14.9295L12.5471 11.0879C12.4758 10.8221 12.6341 10.5479 12.8999 10.4767C13.1657 10.4055 13.4399 10.5638 13.5112 10.8296L14.5405 14.6712C14.5957 14.8771 14.8074 14.9994 15.0135 14.9442C15.2195 14.889 15.3418 14.6773 15.2866 14.4712L13.979 9.59185C13.9445 9.4631 13.9622 9.32863 14.0289 9.21317C14.0955 9.09774 14.2031 9.01518 14.3319 8.98065C14.4606 8.94613 14.5951 8.96385 14.7106 9.03051C14.826 9.09716 14.9086 9.20479 14.9431 9.33354L16.2505 14.213C16.2968 14.3855 16.4528 14.4994 16.6233 14.4993C16.6564 14.4993 16.69 14.495 16.7235 14.4861C16.9295 14.4309 17.0518 14.2191 16.9966 14.0131L15.9673 10.1715C15.9327 10.0427 15.9505 9.90828 16.0171 9.79281C16.0838 9.67738 16.1914 9.59482 16.3201 9.5603C16.5859 9.48924 16.8601 9.64738 16.9313 9.91318L18.1128 14.3224C18.1536 14.4746 18.2827 14.5867 18.439 14.6058C18.5955 14.625 18.7477 14.547 18.8238 14.4092L19.5838 13.0331C19.6834 12.8529 19.8475 12.7236 20.0461 12.669C20.2446 12.6144 20.4517 12.6418 20.6295 12.7458C20.9414 12.9285 21.0776 13.3183 20.9532 13.6726Z"/>
</mask>
<path d="M21.0198 12.0794C20.6609 11.8692 20.2424 11.8141 19.8414 11.9243C19.4404 12.0345 19.1088 12.2957 18.9078 12.6597L18.6109 13.1972L18.3394 12.1839L19.1475 10.7842C19.6261 9.95531 19.341 8.8916 18.5121 8.41302C18.206 8.23631 17.8649 8.16448 17.5325 8.18665L18.2874 6.88019C18.5193 6.47869 18.5809 6.01088 18.4609 5.56304C18.3409 5.11519 18.0537 4.74084 17.6521 4.50906C17.3436 4.33092 17.0026 4.25878 16.6714 4.28087L16.7923 4.07141C17.2709 3.24253 16.9859 2.17882 16.1569 1.70024C15.3281 1.22162 14.2644 1.50677 13.7858 2.33561L13.6649 2.54491C13.5185 2.24702 13.2853 1.9879 12.9769 1.8098C12.5754 1.57798 12.1076 1.51638 11.6597 1.63637C11.2118 1.75635 10.8375 2.04359 10.6057 2.44513L10.0681 3.3763C9.96148 3.56101 10.0248 3.79719 10.2095 3.90381C10.3942 4.01043 10.6304 3.94718 10.737 3.76247L11.2746 2.8313C11.4033 2.60844 11.611 2.44899 11.8596 2.38237C12.1082 2.31576 12.3678 2.34997 12.5907 2.47861C12.8135 2.60728 12.973 2.81504 13.0396 3.06362C13.1058 3.31073 13.0724 3.56877 12.9457 3.79078L9.45734 9.83251C9.35072 10.0172 9.41397 10.2534 9.59868 10.36C9.78334 10.4666 10.0195 10.4034 10.1262 10.2187L14.4545 2.72174C14.7202 2.26166 15.3106 2.10344 15.7707 2.36909C16.2308 2.63474 16.389 3.22515 16.1233 3.68524L12.6185 9.75589C11.991 9.96964 11.627 10.6384 11.801 11.2879L11.8611 11.5124C11.696 11.4886 11.5237 11.497 11.3526 11.5428C10.6755 11.7243 10.2722 12.4228 10.4536 13.0999L11.491 16.9713C11.6826 17.6865 12.0314 18.3326 12.5079 18.8717C10.497 19.9887 8.06222 19.9774 6.04961 18.8154C3.22604 17.1852 2.03567 13.7969 3.21917 10.759L4.45125 7.59619C4.65233 7.08007 5.23935 6.81431 5.75979 7.00376C6.26656 7.1882 6.54549 7.7383 6.39481 8.25612L5.59605 11.001C5.53639 11.206 5.6395 11.4238 5.83583 11.5076C6.03219 11.5913 6.26077 11.5151 6.36747 11.3302L9.0003 6.77029C9.10696 6.58558 9.04367 6.34944 8.85897 6.24277C8.67434 6.13615 8.43812 6.19941 8.33146 6.38411L7.14626 8.43681C7.38773 7.54004 6.90031 6.59693 6.02401 6.27799C5.57937 6.11623 5.0972 6.13457 4.66627 6.32963C4.2353 6.52476 3.90335 6.87498 3.73162 7.31583L2.49954 10.4786C1.86433 12.1091 1.83394 13.9163 2.41397 15.5673C2.99399 17.2182 4.14803 18.6093 5.66344 19.4842C6.78094 20.1294 8.04052 20.4671 9.32171 20.4671C9.40706 20.4671 9.49256 20.4655 9.57805 20.4625C10.8196 20.4189 12.0283 20.0615 13.0909 19.4266C13.2776 19.576 13.4768 19.7124 13.6878 19.8343C14.4143 20.2538 15.2206 20.4681 16.0377 20.468C16.4472 20.468 16.8596 20.4141 17.2658 20.3053C18.7713 19.9019 19.9783 18.783 20.4945 17.3123L21.682 13.9284C21.9285 13.226 21.65 12.4484 21.0198 12.0794ZM18.1259 9.08191C18.586 9.34755 18.7442 9.93793 18.4786 10.3981L18.0566 11.1289L17.6773 9.71334C17.6054 9.44506 17.4515 9.2129 17.237 9.04429C17.5136 8.9162 17.8461 8.92037 18.1259 9.08191ZM17.2659 5.17791C17.4887 5.30658 17.6481 5.51434 17.7148 5.76292C17.7814 6.01154 17.7472 6.27116 17.6186 6.4939L16.2976 8.77996C16.2383 8.78722 16.179 8.79853 16.1202 8.81429C15.9504 8.85978 15.7952 8.93837 15.6613 9.04414C15.5612 8.7559 15.3636 8.51574 15.0967 8.36166C14.8861 8.23998 14.6504 8.18271 14.4131 8.19213L15.9498 5.53044C16.2155 5.07047 16.8058 4.9123 17.2659 5.17791ZM20.9532 13.6726L19.7657 17.0565C19.3341 18.2863 18.3248 19.222 17.0658 19.5593C16.0485 19.8318 14.986 19.692 14.074 19.1654C13.1619 18.6388 12.5095 17.7886 12.2369 16.7713L11.1996 12.9C11.1284 12.6342 11.2867 12.36 11.5525 12.2888C11.8182 12.2177 12.0924 12.3758 12.1637 12.6415L12.8303 15.1294C12.8766 15.302 13.0326 15.4157 13.2031 15.4157C13.2362 15.4157 13.2698 15.4115 13.3033 15.4025C13.5093 15.3473 13.6316 15.1355 13.5764 14.9295L12.5471 11.0879C12.4758 10.8221 12.6341 10.5479 12.8999 10.4767C13.1657 10.4055 13.4399 10.5638 13.5112 10.8296L14.5405 14.6712C14.5957 14.8771 14.8074 14.9994 15.0135 14.9442C15.2195 14.889 15.3418 14.6773 15.2866 14.4712L13.979 9.59185C13.9445 9.4631 13.9622 9.32863 14.0289 9.21317C14.0955 9.09774 14.2031 9.01518 14.3319 8.98065C14.4606 8.94613 14.5951 8.96385 14.7106 9.03051C14.826 9.09716 14.9086 9.20479 14.9431 9.33354L16.2505 14.213C16.2968 14.3855 16.4528 14.4994 16.6233 14.4993C16.6564 14.4993 16.69 14.495 16.7235 14.4861C16.9295 14.4309 17.0518 14.2191 16.9966 14.0131L15.9673 10.1715C15.9327 10.0427 15.9505 9.90828 16.0171 9.79281C16.0838 9.67738 16.1914 9.59482 16.3201 9.5603C16.5859 9.48924 16.8601 9.64738 16.9313 9.91318L18.1128 14.3224C18.1536 14.4746 18.2827 14.5867 18.439 14.6058C18.5955 14.625 18.7477 14.547 18.8238 14.4092L19.5838 13.0331C19.6834 12.8529 19.8475 12.7236 20.0461 12.669C20.2446 12.6144 20.4517 12.6418 20.6295 12.7458C20.9414 12.9285 21.0776 13.3183 20.9532 13.6726Z" fill="white"/>
<path d="M21.0198 12.0794C20.6609 11.8692 20.2424 11.8141 19.8414 11.9243C19.4404 12.0345 19.1088 12.2957 18.9078 12.6597L18.6109 13.1972L18.3394 12.1839L19.1475 10.7842C19.6261 9.95531 19.341 8.8916 18.5121 8.41302C18.206 8.23631 17.8649 8.16448 17.5325 8.18665L18.2874 6.88019C18.5193 6.47869 18.5809 6.01088 18.4609 5.56304C18.3409 5.11519 18.0537 4.74084 17.6521 4.50906C17.3436 4.33092 17.0026 4.25878 16.6714 4.28087L16.7923 4.07141C17.2709 3.24253 16.9859 2.17882 16.1569 1.70024C15.3281 1.22162 14.2644 1.50677 13.7858 2.33561L13.6649 2.54491C13.5185 2.24702 13.2853 1.9879 12.9769 1.8098C12.5754 1.57798 12.1076 1.51638 11.6597 1.63637C11.2118 1.75635 10.8375 2.04359 10.6057 2.44513L10.0681 3.3763C9.96148 3.56101 10.0248 3.79719 10.2095 3.90381C10.3942 4.01043 10.6304 3.94718 10.737 3.76247L11.2746 2.8313C11.4033 2.60844 11.611 2.44899 11.8596 2.38237C12.1082 2.31576 12.3678 2.34997 12.5907 2.47861C12.8135 2.60728 12.973 2.81504 13.0396 3.06362C13.1058 3.31073 13.0724 3.56877 12.9457 3.79078L9.45734 9.83251C9.35072 10.0172 9.41397 10.2534 9.59868 10.36C9.78334 10.4666 10.0195 10.4034 10.1262 10.2187L14.4545 2.72174C14.7202 2.26166 15.3106 2.10344 15.7707 2.36909C16.2308 2.63474 16.389 3.22515 16.1233 3.68524L12.6185 9.75589C11.991 9.96964 11.627 10.6384 11.801 11.2879L11.8611 11.5124C11.696 11.4886 11.5237 11.497 11.3526 11.5428C10.6755 11.7243 10.2722 12.4228 10.4536 13.0999L11.491 16.9713C11.6826 17.6865 12.0314 18.3326 12.5079 18.8717C10.497 19.9887 8.06222 19.9774 6.04961 18.8154C3.22604 17.1852 2.03567 13.7969 3.21917 10.759L4.45125 7.59619C4.65233 7.08007 5.23935 6.81431 5.75979 7.00376C6.26656 7.1882 6.54549 7.7383 6.39481 8.25612L5.59605 11.001C5.53639 11.206 5.6395 11.4238 5.83583 11.5076C6.03219 11.5913 6.26077 11.5151 6.36747 11.3302L9.0003 6.77029C9.10696 6.58558 9.04367 6.34944 8.85897 6.24277C8.67434 6.13615 8.43812 6.19941 8.33146 6.38411L7.14626 8.43681C7.38773 7.54004 6.90031 6.59693 6.02401 6.27799C5.57937 6.11623 5.0972 6.13457 4.66627 6.32963C4.2353 6.52476 3.90335 6.87498 3.73162 7.31583L2.49954 10.4786C1.86433 12.1091 1.83394 13.9163 2.41397 15.5673C2.99399 17.2182 4.14803 18.6093 5.66344 19.4842C6.78094 20.1294 8.04052 20.4671 9.32171 20.4671C9.40706 20.4671 9.49256 20.4655 9.57805 20.4625C10.8196 20.4189 12.0283 20.0615 13.0909 19.4266C13.2776 19.576 13.4768 19.7124 13.6878 19.8343C14.4143 20.2538 15.2206 20.4681 16.0377 20.468C16.4472 20.468 16.8596 20.4141 17.2658 20.3053C18.7713 19.9019 19.9783 18.783 20.4945 17.3123L21.682 13.9284C21.9285 13.226 21.65 12.4484 21.0198 12.0794ZM18.1259 9.08191C18.586 9.34755 18.7442 9.93793 18.4786 10.3981L18.0566 11.1289L17.6773 9.71334C17.6054 9.44506 17.4515 9.2129 17.237 9.04429C17.5136 8.9162 17.8461 8.92037 18.1259 9.08191ZM17.2659 5.17791C17.4887 5.30658 17.6481 5.51434 17.7148 5.76292C17.7814 6.01154 17.7472 6.27116 17.6186 6.4939L16.2976 8.77996C16.2383 8.78722 16.179 8.79853 16.1202 8.81429C15.9504 8.85978 15.7952 8.93837 15.6613 9.04414C15.5612 8.7559 15.3636 8.51574 15.0967 8.36166C14.8861 8.23998 14.6504 8.18271 14.4131 8.19213L15.9498 5.53044C16.2155 5.07047 16.8058 4.9123 17.2659 5.17791ZM20.9532 13.6726L19.7657 17.0565C19.3341 18.2863 18.3248 19.222 17.0658 19.5593C16.0485 19.8318 14.986 19.692 14.074 19.1654C13.1619 18.6388 12.5095 17.7886 12.2369 16.7713L11.1996 12.9C11.1284 12.6342 11.2867 12.36 11.5525 12.2888C11.8182 12.2177 12.0924 12.3758 12.1637 12.6415L12.8303 15.1294C12.8766 15.302 13.0326 15.4157 13.2031 15.4157C13.2362 15.4157 13.2698 15.4115 13.3033 15.4025C13.5093 15.3473 13.6316 15.1355 13.5764 14.9295L12.5471 11.0879C12.4758 10.8221 12.6341 10.5479 12.8999 10.4767C13.1657 10.4055 13.4399 10.5638 13.5112 10.8296L14.5405 14.6712C14.5957 14.8771 14.8074 14.9994 15.0135 14.9442C15.2195 14.889 15.3418 14.6773 15.2866 14.4712L13.979 9.59185C13.9445 9.4631 13.9622 9.32863 14.0289 9.21317C14.0955 9.09774 14.2031 9.01518 14.3319 8.98065C14.4606 8.94613 14.5951 8.96385 14.7106 9.03051C14.826 9.09716 14.9086 9.20479 14.9431 9.33354L16.2505 14.213C16.2968 14.3855 16.4528 14.4994 16.6233 14.4993C16.6564 14.4993 16.69 14.495 16.7235 14.4861C16.9295 14.4309 17.0518 14.2191 16.9966 14.0131L15.9673 10.1715C15.9327 10.0427 15.9505 9.90828 16.0171 9.79281C16.0838 9.67738 16.1914 9.59482 16.3201 9.5603C16.5859 9.48924 16.8601 9.64738 16.9313 9.91318L18.1128 14.3224C18.1536 14.4746 18.2827 14.5867 18.439 14.6058C18.5955 14.625 18.7477 14.547 18.8238 14.4092L19.5838 13.0331C19.6834 12.8529 19.8475 12.7236 20.0461 12.669C20.2446 12.6144 20.4517 12.6418 20.6295 12.7458C20.9414 12.9285 21.0776 13.3183 20.9532 13.6726Z" stroke="white" stroke-width="0.2" mask="url(#path-1-outside-1)"/>
<path d="M9.53389 5.5103C9.64873 5.5103 9.76107 5.4637 9.84226 5.38251C9.92345 5.30132 9.97005 5.18898 9.97005 5.07414C9.97005 4.95931 9.92345 4.84697 9.84226 4.76578C9.76107 4.68459 9.64873 4.63799 9.53389 4.63799C9.41864 4.63799 9.30669 4.68461 9.22552 4.76578L9.26088 4.80113L9.22562 4.76568C9.14387 4.84699 9.09774 4.95942 9.09774 5.07414C9.09774 5.18884 9.14385 5.30125 9.22557 5.38256C9.30675 5.46375 9.41868 5.5103 9.53389 5.5103Z" fill="white" stroke="white" stroke-width="0.1"/>
</svg>
