<svg width="45" height="45" viewBox="0 0 45 45" fill="none" xmlns="http://www.w3.org/2000/svg">
<circle cx="22.2889" cy="22.2889" r="22.2889" fill="#F1F8FF"/>
<path fill-rule="evenodd" clip-rule="evenodd" d="M22.52 12.1666C16.3008 12.1666 11.2533 17.02 11.2533 23C11.2533 28.98 16.3008 33.8333 22.52 33.8333C28.7392 33.8333 33.7867 28.98 33.7867 23C33.7867 17.02 28.7392 12.1666 22.52 12.1666ZM26.5874 19.035C27.7929 19.035 28.7618 19.9666 28.7618 21.1258C28.7618 22.285 27.7929 23.2166 26.5874 23.2166C25.3818 23.2166 24.4129 22.285 24.4129 21.1258C24.4016 19.9666 25.3818 19.035 26.5874 19.035ZM19.8272 17.3232C21.2919 17.3232 22.4861 18.4716 22.4861 19.8799C22.4861 21.2882 21.2919 22.4366 19.8272 22.4366C18.3625 22.4366 17.1683 21.2882 17.1683 19.8799C17.1683 18.4607 18.3513 17.3232 19.8272 17.3232ZM19.8272 27.2142V31.2767C17.1232 30.4642 14.9826 28.46 14.0362 25.9034C15.2192 24.69 18.171 24.0725 19.8272 24.0725C20.4244 24.0725 21.1792 24.1592 21.9679 24.3109C20.1202 25.2534 19.8272 26.4992 19.8272 27.2142ZM22.52 31.6666C22.2158 31.6666 21.9228 31.6558 21.6299 31.6233V27.2141C21.6299 25.6758 24.9423 24.9066 26.5872 24.9066C27.7928 24.9066 29.8771 25.3291 30.9136 26.1524C29.5954 29.3699 26.3394 31.6666 22.52 31.6666Z" fill="#007BFF"/>
</svg>
