<svg width="30" height="30" viewBox="0 0 30 30" fill="none" xmlns="http://www.w3.org/2000/svg">
<rect width="30" height="30" rx="5" fill="url(#paint0_linear)"/>
<path fill-rule="evenodd" clip-rule="evenodd" d="M12.1875 7.5H17.8125C20.4009 7.5 22.5 9.59906 22.5 12.1875V17.8125C22.5 20.4009 20.4009 22.5 17.8125 22.5H12.1875C9.59906 22.5 7.5 20.4009 7.5 17.8125V12.1875C7.5 9.59906 9.59906 7.5 12.1875 7.5ZM17.8125 21.0938C19.6219 21.0938 21.0938 19.6219 21.0938 17.8125V12.1875C21.0938 10.3781 19.6219 8.90625 17.8125 8.90625H12.1875C10.3781 8.90625 8.90625 10.3781 8.90625 12.1875V17.8125C8.90625 19.6219 10.3781 21.0938 12.1875 21.0938H17.8125ZM11.25 15C11.25 12.9291 12.9291 11.25 15 11.25C17.0709 11.25 18.75 12.9291 18.75 15C18.75 17.0709 17.0709 18.75 15 18.75C12.9291 18.75 11.25 17.0709 11.25 15ZM12.6562 15C12.6562 16.2919 13.7081 17.3438 15 17.3438C16.2919 17.3438 17.3438 16.2919 17.3438 15C17.3438 13.7072 16.2919 12.6562 15 12.6562C13.7081 12.6562 12.6562 13.7072 12.6562 15ZM19.0625 11.875C19.5802 11.875 20 11.4553 20 10.9375C20 10.4197 19.5802 10 19.0625 10C18.5447 10 18.125 10.4197 18.125 10.9375C18.125 11.4553 18.5447 11.875 19.0625 11.875Z" fill="white"/>
<defs>
<linearGradient id="paint0_linear" x1="30" y1="26.8588" x2="23.7177" y2="-3.14118" gradientUnits="userSpaceOnUse">
<stop stop-color="#FFD961"/>
<stop offset="0.19365" stop-color="#FF7500"/>
<stop offset="0.530379" stop-color="#EB0077"/>
<stop offset="0.851929" stop-color="#A51BC6"/>
<stop offset="1" stop-color="#4D59DD"/>
</linearGradient>
</defs>
</svg>
