<svg width="45" height="45" viewBox="0 0 45 45" fill="none" xmlns="http://www.w3.org/2000/svg">
<circle cx="22.2889" cy="22.2889" r="22.2889" fill="#F1FFE3"/>
<circle cx="22.5" cy="22.5" r="12.5" fill="#96D755"/>
<path d="M22.5 13C17.2615 13 13 17.2615 13 22.5C13 27.7385 17.2615 32 22.5 32C27.7385 32 32 27.7385 32 22.5C32 17.2615 27.7385 13 22.5 13ZM27.0181 27.4138C26.8637 27.5682 26.661 27.6459 26.4584 27.6459C26.2557 27.6459 26.0529 27.5682 25.8987 27.4138L21.9403 23.4556C21.7914 23.3076 21.7084 23.1064 21.7084 22.8959V17.75C21.7084 17.3122 22.063 16.9584 22.5 16.9584C22.937 16.9584 23.2916 17.3122 23.2916 17.75V22.5681L27.0181 26.2944C27.3276 26.6041 27.3276 27.1043 27.0181 27.4138Z" fill="#F1FFE3"/>
</svg>
