<svg width="30" height="30" viewBox="0 0 30 30" fill="none" xmlns="http://www.w3.org/2000/svg">
<rect width="30" height="30" rx="5" fill="#007AB9"/>
<path fill-rule="evenodd" clip-rule="evenodd" d="M9.86893 8.125C8.81473 8.125 8.12503 8.81768 8.12503 9.72775C8.12503 10.6185 8.79474 11.3312 9.82848 11.3312H9.84848C10.9234 11.3312 11.5917 10.6185 11.5917 9.72775C11.5712 8.81768 10.9234 8.125 9.86893 8.125ZM22.5 16.5544V21.875H19.4183V16.911C19.4183 15.6646 18.9734 14.8134 17.8576 14.8134C17.0061 14.8134 16.5003 15.3865 16.2769 15.9413C16.1957 16.1397 16.1748 16.415 16.1748 16.6931V21.8748H13.0929C13.0929 21.8748 13.1343 13.4674 13.0929 12.5971H16.1751V13.9119C16.1721 13.9167 16.1687 13.9215 16.1652 13.9263C16.1614 13.9317 16.1575 13.937 16.1546 13.9422H16.1751V13.9119C16.5846 13.2811 17.315 12.3793 18.9525 12.3793C20.98 12.3793 22.5 13.7053 22.5 16.5544ZM11.389 21.875H8.30824V12.5972H11.389V21.875Z" fill="white"/>
</svg>
